<svg xmlns="http://www.w3.org/2000/svg" version="1.1" xmlns:xlink="http://www.w3.org/1999/xlink" xmlns:svgjs="http://svgjs.dev/svgjs" width="2000" height="2242" viewBox="0 0 2000 2242"><g transform="matrix(1,0,0,1,-3.1151183800621993,0)"><svg viewBox="0 0 321 360" data-background-color="#ffffff" preserveAspectRatio="xMidYMid meet" height="2242" width="2000" xmlns="http://www.w3.org/2000/svg" xmlns:xlink="http://www.w3.org/1999/xlink"><g id="tight-bounds" transform="matrix(1,0,0,1,0.5000234999999975,0)"><svg viewBox="0 0 320 360" height="360" width="320"><g><svg></svg></g><g><svg viewBox="0 0 320 360" height="360" width="320"><g><path transform="translate(-74.99272,-51.79039) scale(4.65793,4.65793)" d="M20.6 59.9l0.8 1-0.4-1.3c-0.1-0.6-0.8 0.1-0.4 0.3M21.5 59.3c0.3 0.5 0.6 1 0.6 1.5 0 0.7 0.6 1 1.1 1.2-0.7-0.8-1.1-3-1.7-2.7M59.9 16.9c1.7 0 3.3-0.2 5.1 0.2 4.4 1.1 8.1 3.3 10.6 6.4l7 11.2c0.3 2.8 0.9 5.9 0.8 9.3 0.7 0 0.6-1 1.4-1.2-0.8 2-1.2 4.5-1.4 7.4-0.5-1.6 0-4 0.1-5.3-0.7 1.1-1.1 0.3-1.1-0.2 0.1-0.8-0.3-0.7-0.6-1-1.1-1-1.8-2.1-2.6-3.8 0.5-1.3 0.6-3.2-1-4.2-0.5-0.3-1.1-0.8-1.4-1.6-0.4-1.1-1.1-2.4-0.9-4.1 0.1-0.5-1.5 1.1-2.4 0.4-3.9-2.7-7.8-5.8-12.5-8.4-2.5 0-4.3-0.9-5.2-2-0.8-1-0.2-2.3 1-2.4 0.7 0 1.5-0.2 2.1 0.2 0.1-0.4 0.5-0.9 1-0.9M50 14.6l0.2 0.1c1 0.2 1.5 1.6 2.6 1.1 0 0.7 0.1 1.4-0.1 1.9-0.3 0.8-1.2 0.8-1.9 0.8-6.7-0.4-10.6 2.4-14.7 4.8-1.1 0.7-2.3 1.2-3.2 2.1-4.3 4-9 7.7-10.1 15.1l-0.9 8.2c-0.1 0.9-1.1 1.8-0.9 2.9l0.7 4.9c-0.7-0.7-1.1 0.2-0.9 0.6 0.1 0.3 0.5 1.3 1.1 0.4 0.8 1.5 1.6 4.4 2.7 5.7 3.4 4 7.8 7.6 11.4 11.2 0.9-0.2 1.6-0.2 1.8-0.8 0.3 0.6-0.3 1.2-0.8 1.3 1.6 1 3.4 1.9 5.8 2.1 3.1 0.2 6 0.7 8.7 1.4 1.4-0.4 2.8-0.6 4.3-0.7 0.5 0 0.8-0.8 1.4-1l0.1-1c0.6 0.9 0.5-0.3 0.1-0.9 0.7 0.6 0.9 1.1 1.2 1.5 0-0.3 0.8-1.4 0.8-0.1l0.2-1.3c0.3-0.2 0.4 1.1 0.7 0.2 0.3-0.9 0.9-0.2 1.5-0.5-0.2 0.4-0.1 1.2 0.6 0.7l0.8-0.7c0.5 1.2 1.3 0.7 1.7 0.5 4.4-2.8 8.8-6.1 13-9.4l-0.1 1.3 0.5-1.6c0.5 0.5 0.9 0.1 1.1-0.2 0.6-1 1.4-2 2.7-2.9-1.6 4.3-3.5 7.7-5.9 10.5l-1 1.2c0 0.7-0.2 1.6-1 1.7-0.4 0.1-1.2-0.2-1.8 0.4-0.3 0.4 0.7 1.2-0.1 0.6-0.7-0.5-1.4 0-2.2 0.2-0.6 0.2 0.4 0.8 0.6 1.2 0.2 0.4 0.4 0.8 0.3 1.3l-1.1-1.2c-1.3 0.7-2.1 2-3.2 3-0.5 0.4-0.3 1.1-0.3 1.7-0.7 0-1.5-0.2-1.9 0.2-0.3 0.4-0.2 1-0.2 1.6-1-0.1-1.1-1.6-2-1.3-0.9 0.2-1.9 0.3-2.7 0.8 0.6 1.2-1 0.5-0.8 0.7-1.5-0.9-2.8-1.6-4.4-1-3.4-1.1-7.6-0.6-10.7-0.2 0-0.5 0.1-1-0.1-1.1-0.2 0.5-0.8 0.3-0.7 0.3-1.9-1.3-3.8-2.1-5.8-3.2-1.8 0.2-3.5-0.7-4-1.2-1.4-1.3-3-0.6-4.3-0.9-2.8-0.7-3.8-3.6-4.1-5.6-0.2-1-1-1.4-1.3-1.3-1.3-4.2-3.3-8-4.9-11.9-0.4-1-0.3-2-0.3-3.1 0.5 0.2 1 0.1 0.9-0.6-0.5-3.3-1.7-5.8-3-8.2 0.7-3.4 0.8-7.4 2.4-10.4 1.4-2.7 4-4.1 5.8-6.4 0.6-0.8 0.6-1.9 1.2-2.6 2-2 4-4.1 6.2-5.9 1-0.8 2.2 0 3.7-0.3 0.5-1.8 2.5-3.4 4.4-2.9 0.8 0.2 2.4-1.9 2.9-2.1 0.8-0.3 0.4 0.8 0.4 1.5 1.9-1.5 4.5-2.3 6.9-3.2" fill="#000000" fill-rule="nonzero" stroke="none" stroke-width="1" stroke-linecap="butt" stroke-linejoin="miter" stroke-miterlimit="10" stroke-dasharray="" stroke-dashoffset="0" font-family="none" font-weight="none" font-size="none" text-anchor="none" style="mix-blend-mode: normal" data-fill-palette-color="tertiary"></path></g><g transform="matrix(1,0,0,1,82.21020835228151,90)"><svg viewBox="0 0 155.57958329543698 180" height="180" width="155.57958329543698"><g><svg viewBox="0 0 192 222.13711637453406" height="180" width="155.57958329543698"><g transform="matrix(1,0,0,1,0,141.85711825566491)"><svg viewBox="0 0 192 80.27999811886914" height="80.27999811886914" width="192"><g id="textblocktransform"><svg viewBox="0 0 192 80.27999811886914" height="80.27999811886914" width="192" id="textblock"><g><svg viewBox="0 0 192 80.27999811886914" height="80.27999811886914" width="192"><g transform="matrix(1,0,0,1,0,0)"><svg width="192" viewBox="0.23 -51.540537847175 133.74892856221197 55.930958844392" height="80.27999811886914" data-palette-color="#a62a6c"><g class="wordmark-text-0" data-fill-palette-color="primary" id="text-0"><path d="M32-6.1L32-6.1Q32.95-6.85 33.63-6.73 34.3-6.6 34.3-5.4L34.3-5.4Q34.3-5.15 34.2-4.88 34.1-4.6 33.98-4.38 33.85-4.15 33.6-3.9 33.35-3.65 33.15-3.45 32.95-3.25 32.65-3.03 32.35-2.8 32.15-2.68 31.95-2.55 31.65-2.35 31.35-2.15 31.2-2.05L31.2-2.05Q30.25-1.4 29.2-0.95L29.2-0.95Q29.1-0.9 28-0.35L28-0.35 27.75-0.05Q26.4 1.25 23.85 1.55L23.85 1.55Q22.25 1.75 21.38 1.58 20.5 1.4 18.95 0.7L18.95 0.7Q16.65-0.4 15.9-1.1L15.9-1.1Q15.4-1.5 15.05-1.45 14.7-1.4 13.75-0.65L13.75-0.65Q10.7 1.55 6.48 1.83 2.25 2.1 0.95 0.15L0.95 0.15Q0.15-1.1 0.23-4.7 0.3-8.3 1.15-9.85L1.15-9.85Q1.9-11.2 2.3-11.85L2.3-11.85Q2.75-12.5 3.15-13.05L3.15-13.05Q3.55-13.65 4.5-14.8L4.5-14.8Q7.65-18.7 9.45-20.15L9.45-20.15Q10.85-21.25 12.75-22.03 14.65-22.8 16.73-23.05 18.8-23.3 20.4-22.5L20.4-22.5Q22.35-21.5 22.8-19.07 23.25-16.65 22.7-14.38 22.15-12.1 21.15-10.1L21.15-10.1Q20.3-8.2 19.88-5.95 19.45-3.7 19.9-3L19.9-3Q20.85-1.1 26.15-2.75L26.15-2.75Q26.35-2.8 26.55-2.8L26.55-2.8Q26.85-2.9 27-3L27-3Q30.2-4.65 32-6.1ZM16.9-15.5L16.9-15.5Q17.45-15.8 17.5-16 17.55-16.2 17.25-16.5L17.25-16.5Q16.65-17.15 15.55-17.35 14.45-17.55 13.4-17.25L13.4-17.25Q12.35-17 10.23-15.25 8.1-13.5 7.35-12.25L7.35-12.25Q6.35-10.8 5.65-9.65L5.65-9.65Q4.8-8.45 4.5-6.15 4.2-3.85 4.75-3.15L4.75-3.15Q5.25-2.55 6.95-2.55 8.65-2.55 10.15-3.1L10.15-3.1Q11.6-3.8 12.3-5.2L12.3-5.2Q13.5-7.55 14.25-9L14.25-9Q15.55-11.25 15.55-12.05L15.55-12.05Q15.55-12.55 15.98-13.08 16.4-13.6 16.2-14.2L16.2-14.2Q15.95-15 16.9-15.5ZM43.2-30.35L43.2-30.35Q41.8-30 40.45-31.35L40.45-31.35Q39.5-32.3 39.45-32.6 39.4-32.9 40.15-33.5L40.15-33.5Q41.2-34.25 42.82-34.25 44.45-34.25 45.05-33.5L45.05-33.5Q45.7-32.65 45.12-31.65 44.55-30.65 43.2-30.35ZM52.1-6.4L52.1-6.4Q52.45-5.8 52.12-5.25 51.8-4.7 50.3-3.45L50.3-3.45Q47.95-1.45 44.75 0.2L44.75 0.2Q42.35 1.4 39.77 1.18 37.2 0.95 34.92-0.3 32.65-1.55 31-3.55L31-3.55Q28.65-6.35 29.6-11L29.6-11Q29.7-11.35 30-13.4 30.3-15.45 30.62-17.03 30.95-18.6 31.35-19.1L31.35-19.1Q31.8-19.65 32.82-19.85 33.85-20.05 34.95-19.88 36.05-19.7 37.05-19.23 38.05-18.75 38.42-17.95 38.8-17.15 38.4-16.15L38.4-16.15Q37.25-13.75 37.25-12.8L37.25-12.8Q37.25-11.9 36.25-10.55L36.25-10.55Q35.4-9.55 35.22-8.13 35.05-6.7 35.7-6.25L35.7-6.25Q36.25-6.05 36.25-5L36.25-5Q36.25-4.1 37.55-2.95L37.55-2.95Q38.45-2.1 38.97-2 39.5-1.9 40.9-2.25L40.9-2.25Q42.95-3 46.15-5.3L46.15-5.3Q48.7-7.15 50.02-7.4 51.35-7.65 52.1-6.4ZM45.87-6.9L45.87-6.9Q46.67-8.25 48.97-13.08 51.27-17.9 52.92-19.85L52.92-19.85Q53.17-20.2 53.47-20.5L53.47-20.5Q54.07-21.15 55.12-21.48 56.17-21.8 57.02-21.4L57.02-21.4Q57.32-21.2 57.45-20.35 57.57-19.5 57.82-19.45L57.82-19.45Q58.17-19.4 59.52-20.35L59.52-20.35Q61.82-21.95 66.77-23L66.77-23Q68.77-23.5 69.37-23.4 69.97-23.3 70.87-22.5L70.87-22.5Q72.02-21.35 72.07-19.7 72.12-18.05 70.97-16.6L70.97-16.6Q70.12-15.35 68.77-11.65 67.42-7.95 67.42-6.55L67.42-6.55Q67.42-5.55 68.09-4.38 68.77-3.2 69.75-2.43 70.72-1.65 71.52-1.65L71.52-1.65Q72.72-1.65 76.57-3.65 80.42-5.65 82.62-7.45L82.62-7.45Q84.27-8.7 84.97-8.63 85.67-8.55 85.67-7.15L85.67-7.15Q85.67-6.55 85.15-5.78 84.62-5 83.77-4.15L83.77-4.15Q82.87-3.35 81.67-2.53 80.47-1.7 79.22-1.2L79.22-1.2Q75.92 0.35 74.47 1.05L74.47 1.05Q71.97 2.2 70.05 1.7 68.12 1.2 65.52-1.4L65.52-1.4Q63.42-3.5 63.05-4.28 62.67-5.05 62.67-7.25L62.67-7.25Q62.67-10.45 63.82-13.9L63.82-13.9Q64.82-17.35 64.62-17.65L64.62-17.65Q64.32-17.95 60.57-14.43 56.82-10.9 53.22-6.98 49.62-3.05 49.62-2.45L49.62-2.45Q49.62-1.95 49-1.35 48.37-0.75 47.47-0.38 46.57 0 45.87-0.15L45.87-0.15Q44.72-0.3 44.27-1.95L44.27-1.95Q43.92-3.05 44.17-3.9 44.42-4.75 45.87-6.9ZM108.39-6.05L108.39-6.05Q109.54-6.85 110.34-6.58 111.14-6.3 111.04-4.9L111.04-4.9Q110.99-4.55 110.82-4.17 110.64-3.8 110.34-3.5 110.04-3.2 109.77-2.95 109.49-2.7 109.04-2.43 108.59-2.15 108.29-2 107.99-1.85 107.52-1.6 107.04-1.35 106.89-1.25L106.89-1.25Q105.64-0.6 104.29-0.2L104.29-0.2Q104.24-0.15 103.07 0.58 101.89 1.3 100.39 2.18 98.89 3.05 97.94 3.35L97.94 3.35Q96.64 3.8 95.24 4.05 93.84 4.3 92.29 4.38 90.74 4.45 89.32 4.05 87.89 3.65 86.94 2.85L86.94 2.85Q85.79 1.8 85.07-0.03 84.34-1.85 84.12-3.98 83.89-6.1 83.89-7.95 83.89-9.8 84.04-11.5L84.04-11.5Q84.09-11.75 84.62-15.78 85.14-19.8 85.62-23.68L85.62-23.68 86.09-27.55Q85.49-27.9 83.84-28.05L83.84-28.05Q82.84-28.1 81.79-28.05L81.79-28.05Q79.34-28.05 78.34-28.2L78.34-28.2Q78.14-28.25 77.77-28.25 77.39-28.25 77.02-28.25 76.64-28.25 76.27-28.25 75.89-28.25 75.67-28.33 75.44-28.4 75.39-28.55L75.39-28.55Q75.29-29.35 76.04-29.7L76.04-29.7Q76.09-29.75 76.72-30.13 77.34-30.5 78.02-30.85 78.69-31.2 79.84-31.48 80.99-31.75 82.19-31.7L82.19-31.7Q85.94-31.35 86.87-31.48 87.79-31.6 88.69-32.55L88.69-32.55Q90.04-33.8 92.29-39.1L92.29-39.1Q92.39-39.3 92.59-39.7L92.59-39.7Q93.44-41.7 93.99-42.85 94.54-44 95.54-45.78 96.54-47.55 97.74-48.75 98.94-49.95 100.24-50.6L100.24-50.6Q104.44-52.6 104.44-50.35L104.44-50.35Q104.44-49.05 102.49-44.5L102.49-44.5Q101.94-43.25 101.69-42.55L101.69-42.55Q101.39-41.65 101.19-40.4 100.99-39.15 100.24-37.9L100.24-37.9Q99.04-35.8 98.24-34.35L98.24-34.35Q97.29-32.65 97.54-32.35L97.54-32.35Q97.79-31.95 102.59-31.45L102.59-31.45Q105.94-31.1 106.67-30.85 107.39-30.6 107.29-29.9L107.29-29.9Q107.19-28.95 106.19-29.1L106.19-29.1Q105.79-29.15 104.59-29.15L104.59-29.15Q103.39-29.1 101.89-29L101.89-29Q100.39-28.9 98.79-28.7L98.79-28.7Q97.24-28.5 96.19-28.4L96.19-28.4Q95.64-28.3 94.74-25.2 93.84-22.1 92.77-17.68 91.69-13.25 91.19-11.75L91.19-11.75Q88.64-4.1 91.84-1.25L91.84-1.25Q93.29 0.05 94.54 0L94.54 0Q95.29 0 96.19-0.55L96.19-0.55Q96.34-0.75 97.22-1.15 98.09-1.55 99.02-1.88 99.94-2.2 100.92-2.55 101.89-2.9 101.94-2.9L101.94-2.9Q105.94-4.5 108.39-6.05ZM131.22-5.6L131.22-5.6Q132.31-6.5 133.14-6.33 133.97-6.15 133.97-4.75L133.97-4.75Q134.02-4.3 133.79-3.85 133.56-3.4 133.31-3.08 133.06-2.75 132.59-2.35 132.12-1.95 131.81-1.75 131.52-1.55 130.94-1.18 130.37-0.8 130.27-0.7L130.27-0.7Q129.06 0.1 127.81 0.65L127.81 0.65Q127.72 0.7 127.54 0.78 127.37 0.85 127.17 0.93 126.97 1 126.77 1.07 126.56 1.15 126.44 1.2L126.44 1.2 126.31 1.25Q123.27 2.5 119.77 2.7L119.77 2.7Q116.17 2.9 114.52 2.05L114.52 2.05Q114.31 1.95 112.92 1.35 111.52 0.75 110.92 0.3L110.92 0.3Q109.77-0.45 108.72-2.95L108.72-2.95Q106.77-7.45 106.77-10.9L106.77-10.9Q106.77-13 107.52-16.4L107.52-16.4Q107.56-16.6 107.69-17.25 107.81-17.9 107.92-18.23 108.02-18.55 108.17-19.13 108.31-19.7 108.47-20.1 108.62-20.5 108.81-20.93 109.02-21.35 109.22-21.7L109.22-21.7Q110.27-23.15 110.92-23.8L110.92-23.8Q113.62-26.6 117.77-26.3L117.77-26.3Q122.06-25.95 122.42-23.45L122.42-23.45Q122.72-21.5 122.19-19.43 121.67-17.35 120.89-16 120.12-14.65 118.74-12.5 117.37-10.35 116.77-9.2L116.77-9.2Q114.56-5.05 114.56-4.25L114.56-4.25Q114.56-3.6 115.81-2.4L115.81-2.4Q116.62-1.65 117.24-1.5 117.87-1.35 119.52-1.65L119.52-1.65Q122.12-2 125.17-2.9L125.17-2.9Q126.31-3.3 128.52-4.25 130.72-5.2 131.22-5.6ZM111.81-9.15L111.81-9.15Q112.27-9.15 114.31-13.05L114.31-13.05Q116.31-16.95 116.31-17.75L116.31-17.75Q116.31-18.7 115.29-18.98 114.27-19.25 113.67-18.5L113.67-18.5Q113.17-17.9 112.67-16.7L112.67-16.7Q112.17-15.5 111.87-14.25L111.87-14.25Q111.62-13 111.42-11.85L111.42-11.85Q111.22-10.7 111.31-9.93 111.42-9.15 111.81-9.15Z" fill="#a62a6c" data-fill-palette-color="primary"></path></g></svg></g></svg></g></svg></g></svg></g><g transform="matrix(1,0,0,1,44.02362170807769,0)"><svg viewBox="0 0 103.95275658384462 103.95275658384462" height="103.95275658384462" width="103.95275658384462"><g><svg></svg></g><g id="icon-0"><svg viewBox="0 0 103.95275658384462 103.95275658384462" height="103.95275658384462" width="103.95275658384462"><g><path d="M0 51.976c0-28.706 23.271-51.976 51.976-51.976 28.706 0 51.976 23.271 51.977 51.976 0 28.706-23.271 51.976-51.977 51.977-28.706 0-51.976-23.271-51.976-51.977zM51.976 96.713c24.707 0 44.737-20.029 44.737-44.737 0-24.707-20.029-44.737-44.737-44.736-24.707 0-44.737 20.029-44.736 44.736 0 24.707 20.029 44.737 44.736 44.737z" data-fill-palette-color="accent" fill="#a62a6c" stroke="transparent"></path><ellipse rx="51.45661450900309" ry="51.45661450900309" cx="51.97637829192231" cy="51.97637829192231" fill="#a62a6c" stroke="transparent" stroke-width="0" fill-opacity="1" data-fill-palette-color="accent"></ellipse></g><g transform="matrix(1,0,0,1,27.773532010764463,27.665811816704238)"><svg viewBox="0 0 48.40569256231569 48.62113295043614" height="48.62113295043614" width="48.40569256231569"><g><svg xmlns:inkscape="http://www.inkscape.org/namespaces/inkscape" xmlns:sodipodi="http://sodipodi.sourceforge.net/DTD/sodipodi-0.dtd" xmlns:cc="http://creativecommons.org/ns#" xmlns:svg="http://www.w3.org/2000/svg" xmlns:rdf="http://www.w3.org/1999/02/22-rdf-syntax-ns#" xmlns:dc="http://purl.org/dc/elements/1.1/" xmlns="http://www.w3.org/2000/svg" xmlns:xlink="http://www.w3.org/1999/xlink" version="1.1" x="0" y="0" viewBox="6.360999056807149 3.907998112712278 52.17710657097396 52.40933248275451" enable-background="new 0 0 64 64" xml:space="preserve" height="48.62113295043614" width="48.40569256231569" class="icon-dxe-0" data-fill-palette-color="quaternary" id="dxe-0"><g fill="#ffffff" data-fill-palette-color="quaternary"><path fill="#ffffff" d="M27.101 16.242A3.01 3.01 0 1 0 31.358 20.501 3.01 3.01 0 0 0 27.1 16.242M18.7 24.644A3.01 3.01 0 1 0 22.957 28.903 3.01 3.01 0 0 0 18.7 24.644M29.126 43.471A3.01 3.01 0 0 0 33.385 43.471L45.927 30.929A3.01 3.01 0 0 0 45.927 26.67L43.676 24.419 26.875 41.22zM9.375 32.839A3.017 3.017 0 0 1 6.361 29.826 3 3 0 0 1 7.246 27.696 3 3 0 0 1 9.375 26.812L9.245 27.677A23.98 23.98 0 0 1 16.108 13.653 24 24 0 0 1 30.132 6.79L29.27 6.92A3 3 0 0 1 30.154 4.79 3 3 0 0 1 32.282 3.908 3.02 3.02 0 0 1 35.296 6.921L36.159 6.79C36.158 15.681 41.546 22.289 41.546 22.289L24.745 39.09C24.391 39.444 20.06 33.702 9.246 33.703z" data-fill-palette-color="quaternary"></path></g><path fill="#ffffff" d="M20.482 41.232C20.482 43.256 18.841 54.897 16.818 54.897S13.153 43.256 13.153 41.233A3.665 3.665 0 0 1 20.482 41.232" data-fill-palette-color="quaternary"></path><path fill="#ffffff" d="M47.121 12.082C48.551 13.512 55.623 22.905 54.192 24.335 52.761 25.766 43.369 18.693 41.938 17.263A3.665 3.665 0 0 1 41.938 12.081 3.667 3.667 0 0 1 47.121 12.082" data-fill-palette-color="quaternary"></path><path fill="#ffffff" d="M58.348 46.627C56.917 48.058 47.527 40.987 46.096 39.556A3.664 3.664 0 1 1 51.278 34.374C52.708 35.805 59.779 45.196 58.348 46.627" data-fill-palette-color="quaternary"></path><path fill="#ffffff" d="M48.848 56.127C47.417 57.559 38.027 50.487 36.596 49.056A3.664 3.664 0 1 1 41.778 43.874C43.208 45.305 50.279 54.696 48.848 56.127" data-fill-palette-color="quaternary"></path></svg></g></svg></g></svg></g></svg></g><g></g></svg></g></svg></g></svg></g><defs></defs></svg><rect width="320" height="360" fill="none" stroke="none" visibility="hidden"></rect></g></svg></g></svg>